<svg width="64" height="64" viewBox="0 0 64 64" fill="none" xmlns="http://www.w3.org/2000/svg">
<g id="report 1">
<g id="Group">
<path id="path5278" d="M6.61003 1.28003C3.67349 1.28003 1.28003 3.67349 1.28003 6.61003V57.39C1.28003 60.3266 3.67349 62.72 6.61003 62.72H32C32.1698 62.72 32.3325 62.6526 32.4526 62.5326C32.5726 62.4125 32.64 62.2498 32.64 62.08V1.92003C32.64 1.7503 32.5726 1.58752 32.4526 1.4675C32.3325 1.34748 32.1698 1.28005 32 1.28003H6.61003ZM6.61003 2.56003H31.36V61.44H6.61003C4.36513 61.44 2.56003 59.6349 2.56003 57.39V6.61003C2.56003 4.36513 4.36513 2.56003 6.61003 2.56003Z" fill="#007BBC"/>
<path id="path5280" d="M32 1.28003C31.8303 1.28005 31.6675 1.34748 31.5475 1.4675C31.4274 1.58752 31.36 1.7503 31.36 1.92003V62.08C31.36 62.2498 31.4274 62.4125 31.5475 62.5326C31.6675 62.6526 31.8303 62.72 32 62.72H57.39C60.3265 62.72 62.72 60.3266 62.72 57.39V6.61003C62.72 3.67349 60.3265 1.28003 57.39 1.28003H32ZM32.64 2.56003H57.39C59.6349 2.56003 61.44 4.36513 61.44 6.61003V57.39C61.44 59.6349 59.6349 61.44 57.39 61.44H32.64V2.56003Z" fill="#007BBC"/>
<path id="rect5282" d="M37.76 32.3387C37.5903 32.3388 37.4275 32.4062 37.3075 32.5262C37.1874 32.6462 37.12 32.809 37.12 32.9787V56.32C37.12 56.4897 37.1874 56.6525 37.3075 56.7725C37.4275 56.8925 37.5903 56.96 37.76 56.96H56.32C56.4897 56.96 56.6525 56.8925 56.7725 56.7725C56.8925 56.6525 56.96 56.4897 56.96 56.32V32.9787C56.96 32.809 56.8925 32.6462 56.7725 32.5262C56.6525 32.4062 56.4897 32.3388 56.32 32.3387H37.76ZM38.4 33.6187H55.68V55.68H38.4V33.6187Z" fill="#007BBC"/>
<path id="rect5284" d="M37.76 7.04004C37.5903 7.04006 37.4275 7.10749 37.3075 7.22751C37.1874 7.34753 37.12 7.51031 37.12 7.68004V27.8613C37.12 28.031 37.1874 28.1938 37.3075 28.3138C37.4275 28.4338 37.5903 28.5013 37.76 28.5013H56.32C56.4897 28.5013 56.6525 28.4338 56.7725 28.3138C56.8925 28.1938 56.96 28.031 56.96 27.8613V7.68004C56.96 7.51031 56.8925 7.34753 56.7725 7.22751C56.6525 7.10749 56.4897 7.04006 56.32 7.04004H37.76ZM38.4 8.32004H55.68V27.2213H38.4V8.32004Z" fill="#007BBC"/>
<path id="path5286" d="M11.78 11.155C10.2744 11.155 9.04126 12.3901 9.04126 13.895V14.3463C9.04126 15.8519 10.2751 17.085 11.78 17.085C12.5938 17.085 13.2388 17.7318 13.2388 18.545V18.9963C13.2388 19.8101 12.5932 20.4563 11.78 20.4563H9.68126C9.51152 20.4563 9.34873 20.5237 9.22871 20.6437C9.10869 20.7638 9.04126 20.9265 9.04126 21.0963C9.04126 21.266 9.10869 21.4288 9.22871 21.5488C9.34873 21.6689 9.51152 21.7363 9.68126 21.7363H11.78C13.2849 21.7363 14.5188 20.5019 14.5188 18.9963V18.545C14.5188 17.0401 13.2856 15.805 11.78 15.805C10.9668 15.805 10.3213 15.1601 10.3213 14.3463V13.895C10.3213 13.0818 10.9662 12.435 11.78 12.435H13.8788C14.0485 12.435 14.2113 12.3676 14.3313 12.2476C14.4513 12.1276 14.5188 11.9648 14.5188 11.795C14.5188 11.6253 14.4513 11.4625 14.3313 11.3425C14.2113 11.2225 14.0485 11.155 13.8788 11.155H11.78Z" fill="#60CDCE"/>
<path id="line5288" d="M11.78 20.4563C11.6103 20.4563 11.4475 20.5237 11.3275 20.6437C11.2074 20.7638 11.14 20.9266 11.14 21.0963V22.4038C11.14 22.5735 11.2074 22.7363 11.3275 22.8563C11.4475 22.9764 11.6103 23.0438 11.78 23.0438C11.9498 23.0438 12.1125 22.9764 12.2326 22.8563C12.3526 22.7363 12.42 22.5735 12.42 22.4038V21.0963C12.42 20.9266 12.3526 20.7638 12.2326 20.6437C12.1125 20.5237 11.9498 20.4563 11.78 20.4563Z" fill="#60CDCE"/>
<path id="line5290" d="M11.78 9.84753C11.6103 9.84753 11.4475 9.91496 11.3275 10.035C11.2074 10.155 11.14 10.3178 11.14 10.4875V11.7963C11.14 11.966 11.2074 12.1288 11.3275 12.2488C11.4475 12.3689 11.6103 12.4363 11.78 12.4363C11.9498 12.4363 12.1125 12.3689 12.2326 12.2488C12.3526 12.1288 12.42 11.966 12.42 11.7963V10.4875C12.42 10.3178 12.3526 10.155 12.2326 10.035C12.1125 9.91496 11.9498 9.84753 11.78 9.84753Z" fill="#60CDCE"/>
<path id="path5292" d="M21.2838 11.155C19.7782 11.155 18.5438 12.3901 18.5438 13.895V14.3463C18.5438 15.8519 19.7789 17.085 21.2838 17.085C22.0976 17.085 22.7426 17.7318 22.7426 18.545V18.9963C22.7426 19.8101 22.097 20.4563 21.2838 20.4563H19.1838C19.0141 20.4563 18.8513 20.5237 18.7313 20.6437C18.6113 20.7638 18.5438 20.9265 18.5438 21.0963C18.5438 21.266 18.6113 21.4288 18.7313 21.5488C18.8513 21.6689 19.0141 21.7363 19.1838 21.7363H21.2838C22.7887 21.7363 24.0226 20.5019 24.0226 18.9963V18.545C24.0226 17.0401 22.7894 15.805 21.2838 15.805C20.4706 15.805 19.8238 15.1601 19.8238 14.3463V13.895C19.8238 13.0818 20.47 12.435 21.2838 12.435H23.3826C23.5523 12.435 23.7151 12.3676 23.8351 12.2476C23.9551 12.1276 24.0226 11.9648 24.0226 11.795C24.0226 11.6253 23.9551 11.4625 23.8351 11.3425C23.7151 11.2225 23.5523 11.155 23.3826 11.155H21.2838Z" fill="#60CDCE"/>
<path id="line5294" d="M21.2838 20.4563C21.1141 20.4563 20.9513 20.5237 20.8312 20.6437C20.7112 20.7638 20.6438 20.9266 20.6438 21.0963V22.4038C20.6438 22.5735 20.7112 22.7363 20.8312 22.8563C20.9513 22.9764 21.1141 23.0438 21.2838 23.0438C21.4535 23.0438 21.6163 22.9764 21.7363 22.8563C21.8564 22.7363 21.9238 22.5735 21.9238 22.4038V21.0963C21.9238 20.9266 21.8564 20.7638 21.7363 20.6437C21.6163 20.5237 21.4535 20.4563 21.2838 20.4563Z" fill="#60CDCE"/>
<path id="line5296" d="M21.2838 9.84753C21.1141 9.84753 20.9513 9.91496 20.8312 10.035C20.7112 10.155 20.6438 10.3178 20.6438 10.4875V11.7963C20.6438 11.966 20.7112 12.1288 20.8312 12.2488C20.9513 12.3689 21.1141 12.4363 21.2838 12.4363C21.4535 12.4363 21.6163 12.3689 21.7363 12.2488C21.8564 12.1288 21.9238 11.966 21.9238 11.7963V10.4875C21.9238 10.3178 21.8564 10.155 21.7363 10.035C21.6163 9.91496 21.4535 9.84753 21.2838 9.84753Z" fill="#60CDCE"/>
<path id="line5298" d="M9.68126 29.9138C9.51152 29.9138 9.34873 29.9812 9.22871 30.1013C9.10869 30.2213 9.04126 30.3841 9.04126 30.5538C9.04126 30.7236 9.10869 30.8863 9.22871 31.0064C9.34873 31.1264 9.51152 31.1938 9.68126 31.1938H24.2388C24.4085 31.1938 24.5713 31.1264 24.6913 31.0064C24.8113 30.8863 24.8788 30.7236 24.8788 30.5538C24.8788 30.3841 24.8113 30.2213 24.6913 30.1013C24.5713 29.9812 24.4085 29.9138 24.2388 29.9138H9.68126Z" fill="#007BBC"/>
<path id="line5300" d="M9.68126 35.6538C9.51152 35.6538 9.34873 35.7212 9.22871 35.8413C9.10869 35.9613 9.04126 36.1241 9.04126 36.2938C9.04126 36.4635 9.10869 36.6263 9.22871 36.7464C9.34873 36.8664 9.51152 36.9338 9.68126 36.9338H24.2388C24.4085 36.9338 24.5713 36.8664 24.6913 36.7464C24.8113 36.6263 24.8788 36.4635 24.8788 36.2938C24.8788 36.1241 24.8113 35.9613 24.6913 35.8413C24.5713 35.7212 24.4085 35.6538 24.2388 35.6538H9.68126Z" fill="#007BBC"/>
<path id="line5302" d="M9.68126 41.3938C9.51152 41.3938 9.34873 41.4612 9.22871 41.5812C9.10869 41.7013 9.04126 41.8641 9.04126 42.0338C9.04126 42.2035 9.10869 42.3663 9.22871 42.4863C9.34873 42.6064 9.51152 42.6738 9.68126 42.6738H24.2388C24.4085 42.6738 24.5713 42.6064 24.6913 42.4863C24.8113 42.3663 24.8788 42.2035 24.8788 42.0338C24.8788 41.8641 24.8113 41.7013 24.6913 41.5812C24.5713 41.4612 24.4085 41.3938 24.2388 41.3938H9.68126Z" fill="#007BBC"/>
<path id="line5304" d="M9.68126 47.1326C9.51152 47.1326 9.34873 47.2 9.22871 47.32C9.10869 47.44 9.04126 47.6028 9.04126 47.7726C9.04126 47.9423 9.10869 48.1051 9.22871 48.2251C9.34873 48.3451 9.51152 48.4126 9.68126 48.4126H24.2388C24.4085 48.4126 24.5713 48.3451 24.6913 48.2251C24.8113 48.1051 24.8788 47.9423 24.8788 47.7726C24.8788 47.6028 24.8113 47.44 24.6913 47.32C24.5713 47.2 24.4085 47.1326 24.2388 47.1326H9.68126Z" fill="#007BBC"/>
<path id="line5306" d="M13.4763 52.8726C13.3066 52.8726 13.1438 52.94 13.0238 53.06C12.9037 53.18 12.8363 53.3428 12.8363 53.5126C12.8363 53.6823 12.9037 53.8451 13.0238 53.9651C13.1438 54.0851 13.3066 54.1526 13.4763 54.1526H20.4438C20.6135 54.1526 20.7763 54.0851 20.8964 53.9651C21.0164 53.8451 21.0838 53.6823 21.0838 53.5126C21.0838 53.3428 21.0164 53.18 20.8964 53.06C20.7763 52.94 20.6135 52.8726 20.4438 52.8726H13.4763Z" fill="#007BBC"/>
<path id="polyline5308" d="M53.8613 12.3275C53.7354 12.2137 53.5696 12.1545 53.4001 12.1629C53.2306 12.1713 53.0714 12.2467 52.9575 12.3725L51.9075 13.5338L50.6313 12.335C50.5128 12.2238 50.3565 12.1617 50.194 12.1615C50.0315 12.1613 49.875 12.2228 49.7563 12.3337L46.3213 15.535L44.4788 13.9612C44.3629 13.8623 44.2155 13.8079 44.0631 13.8079C43.9108 13.8079 43.7634 13.8623 43.6475 13.9612L40.2325 16.8687C40.1035 16.9787 40.0235 17.1354 40.0099 17.3044C39.9963 17.4733 40.0503 17.6408 40.16 17.77C40.2145 17.834 40.2811 17.8867 40.3559 17.925C40.4308 17.9633 40.5124 17.9865 40.5963 17.9933C40.6801 18 40.7644 17.9901 40.8444 17.9643C40.9244 17.9384 40.9985 17.897 41.0625 17.8425L44.0625 15.2888L45.9238 16.8788C46.0433 16.9806 46.196 17.0349 46.353 17.0315C46.5099 17.028 46.6601 16.967 46.775 16.86L50.1913 13.6788L51.505 14.9138C51.567 14.9722 51.64 15.0177 51.7197 15.0475C51.7995 15.0774 51.8844 15.091 51.9695 15.0876C52.0546 15.0843 52.1382 15.0639 52.2153 15.0279C52.2925 14.9918 52.3616 14.9407 52.4188 14.8775L53.9075 13.2313C54.0212 13.1053 54.0802 12.9393 54.0715 12.7698C54.0628 12.6003 53.9872 12.4412 53.8613 12.3275Z" fill="#60CDCE"/>
<path id="line5310" d="M40.6476 20.1138C40.4778 20.1138 40.315 20.1812 40.195 20.3012C40.075 20.4212 40.0076 20.584 40.0076 20.7538V22.74C40.0076 22.9098 40.075 23.0725 40.195 23.1926C40.315 23.3126 40.4778 23.38 40.6476 23.38C40.8173 23.38 40.9801 23.3126 41.1001 23.1926C41.2201 23.0725 41.2876 22.9098 41.2876 22.74V20.7538C41.2876 20.584 41.2201 20.4212 41.1001 20.3012C40.9801 20.1812 40.8173 20.1138 40.6476 20.1138Z" fill="#60CDCE"/>
<path id="line5312" d="M43.7838 17.5438C43.6141 17.5438 43.4513 17.6113 43.3312 17.7313C43.2112 17.8513 43.1438 18.0141 43.1438 18.1838V22.7401C43.1438 22.9098 43.2112 23.0726 43.3312 23.1926C43.4513 23.3126 43.6141 23.3801 43.7838 23.3801C43.9535 23.3801 44.1163 23.3126 44.2363 23.1926C44.3564 23.0726 44.4238 22.9098 44.4238 22.7401V18.1838C44.4238 18.0141 44.3564 17.8513 44.2363 17.7313C44.1163 17.6113 43.9535 17.5438 43.7838 17.5438Z" fill="#60CDCE"/>
<path id="line5314" d="M46.9212 20.1138C46.7515 20.1138 46.5887 20.1812 46.4687 20.3012C46.3487 20.4212 46.2812 20.584 46.2812 20.7538V22.74C46.2812 22.9098 46.3487 23.0725 46.4687 23.1926C46.5887 23.3126 46.7515 23.38 46.9212 23.38C47.091 23.38 47.2538 23.3126 47.3738 23.1926C47.4938 23.0725 47.5612 22.9098 47.5612 22.74V20.7538C47.5612 20.584 47.4938 20.4212 47.3738 20.3012C47.2538 20.1812 47.091 20.1138 46.9212 20.1138Z" fill="#60CDCE"/>
<path id="line5316" d="M50.0588 16.7151C49.8891 16.7151 49.7263 16.7825 49.6063 16.9025C49.4863 17.0226 49.4188 17.1853 49.4188 17.3551V22.7401C49.4188 22.9098 49.4863 23.0726 49.6063 23.1926C49.7263 23.3127 49.8891 23.3801 50.0588 23.3801C50.2286 23.3801 50.3913 23.3127 50.5114 23.1926C50.6314 23.0726 50.6988 22.9098 50.6988 22.7401V17.3551C50.6988 17.1853 50.6314 17.0226 50.5114 16.9025C50.3913 16.7825 50.2286 16.7151 50.0588 16.7151Z" fill="#60CDCE"/>
<path id="line5318" d="M53.1951 15.845C53.0253 15.845 52.8625 15.9124 52.7425 16.0324C52.6225 16.1524 52.5551 16.3152 52.5551 16.485V22.74C52.5551 22.9097 52.6225 23.0725 52.7425 23.1925C52.8625 23.3125 53.0253 23.38 53.1951 23.38C53.3648 23.38 53.5276 23.3125 53.6476 23.1925C53.7676 23.0725 53.8351 22.9097 53.8351 22.74V16.485C53.8351 16.3152 53.7676 16.1524 53.6476 16.0324C53.5276 15.9124 53.3648 15.845 53.1951 15.845Z" fill="#60CDCE"/>
<path id="line5320" d="M41.5951 36.24C41.4253 36.24 41.2626 36.3074 41.1425 36.4274C41.0225 36.5475 40.9551 36.7103 40.9551 36.88C40.9551 37.0497 41.0225 37.2125 41.1425 37.3325C41.2626 37.4526 41.4253 37.52 41.5951 37.52H47.7776C47.9473 37.52 48.1101 37.4526 48.2301 37.3325C48.3502 37.2125 48.4176 37.0497 48.4176 36.88C48.4176 36.7103 48.3502 36.5475 48.2301 36.4274C48.1101 36.3074 47.9473 36.24 47.7776 36.24H41.5951Z" fill="#60CDCE"/>
<path id="line5322" d="M51.1925 36.24C51.0228 36.24 50.86 36.3074 50.7399 36.4274C50.6199 36.5475 50.5525 36.7103 50.5525 36.88C50.5525 37.0497 50.6199 37.2125 50.7399 37.3325C50.86 37.4526 51.0228 37.52 51.1925 37.52H52.485C52.6547 37.52 52.8175 37.4526 52.9375 37.3325C53.0576 37.2125 53.125 37.0497 53.125 36.88C53.125 36.7103 53.0576 36.5475 52.9375 36.4274C52.8175 36.3074 52.6547 36.24 52.485 36.24H51.1925Z" fill="#007BBC"/>
<path id="line5324" d="M46.3025 40.125C46.1327 40.125 45.97 40.1924 45.8499 40.3125C45.7299 40.4325 45.6625 40.5953 45.6625 40.765C45.6625 40.9347 45.7299 41.0975 45.8499 41.2175C45.97 41.3376 46.1327 41.405 46.3025 41.405H52.485C52.6547 41.405 52.8175 41.3376 52.9375 41.2175C53.0575 41.0975 53.125 40.9347 53.125 40.765C53.125 40.5953 53.0575 40.4325 52.9375 40.3125C52.8175 40.1924 52.6547 40.125 52.485 40.125H46.3025Z" fill="#60CDCE"/>
<path id="line5326" d="M41.5951 40.125C41.4253 40.125 41.2626 40.1924 41.1425 40.3125C41.0225 40.4325 40.9551 40.5953 40.9551 40.765C40.9551 40.9347 41.0225 41.0975 41.1425 41.2175C41.2626 41.3376 41.4253 41.405 41.5951 41.405H42.8876C43.0573 41.405 43.2201 41.3376 43.3401 41.2175C43.4602 41.0975 43.5276 40.9347 43.5276 40.765C43.5276 40.5953 43.4602 40.4325 43.3401 40.3125C43.2201 40.1924 43.0573 40.125 42.8876 40.125H41.5951Z" fill="#007BBC"/>
<path id="line5328" d="M41.5951 44.01C41.4253 44.01 41.2626 44.0774 41.1425 44.1975C41.0225 44.3175 40.9551 44.4803 40.9551 44.65C40.9551 44.8197 41.0225 44.9825 41.1425 45.1026C41.2626 45.2226 41.4253 45.29 41.5951 45.29H47.7776C47.9473 45.29 48.1101 45.2226 48.2301 45.1026C48.3502 44.9825 48.4176 44.8197 48.4176 44.65C48.4176 44.4803 48.3502 44.3175 48.2301 44.1975C48.1101 44.0774 47.9473 44.01 47.7776 44.01H41.5951Z" fill="#60CDCE"/>
<path id="line5330" d="M51.1925 44.01C51.0228 44.01 50.86 44.0774 50.7399 44.1975C50.6199 44.3175 50.5525 44.4803 50.5525 44.65C50.5525 44.8197 50.6199 44.9825 50.7399 45.1026C50.86 45.2226 51.0228 45.29 51.1925 45.29H52.485C52.6547 45.29 52.8175 45.2226 52.9375 45.1026C53.0576 44.9825 53.125 44.8197 53.125 44.65C53.125 44.4803 53.0576 44.3175 52.9375 44.1975C52.8175 44.0774 52.6547 44.01 52.485 44.01H51.1925Z" fill="#007BBC"/>
<path id="line5332" d="M46.3025 47.895C46.1327 47.895 45.97 47.9624 45.8499 48.0825C45.7299 48.2025 45.6625 48.3653 45.6625 48.535C45.6625 48.7048 45.7299 48.8675 45.8499 48.9876C45.97 49.1076 46.1327 49.175 46.3025 49.175H52.485C52.6547 49.175 52.8175 49.1076 52.9375 48.9876C53.0575 48.8675 53.125 48.7048 53.125 48.535C53.125 48.3653 53.0575 48.2025 52.9375 48.0825C52.8175 47.9624 52.6547 47.895 52.485 47.895H46.3025Z" fill="#60CDCE"/>
<path id="line5334" d="M41.5951 47.895C41.4253 47.895 41.2626 47.9624 41.1425 48.0825C41.0225 48.2025 40.9551 48.3653 40.9551 48.535C40.9551 48.7048 41.0225 48.8675 41.1425 48.9876C41.2626 49.1076 41.4253 49.175 41.5951 49.175H42.8876C43.0573 49.175 43.2201 49.1076 43.3401 48.9876C43.4602 48.8675 43.5276 48.7048 43.5276 48.535C43.5276 48.3653 43.4602 48.2025 43.3401 48.0825C43.2201 47.9624 43.0573 47.895 42.8876 47.895H41.5951Z" fill="#007BBC"/>
<path id="line5336" d="M41.5951 51.7788C41.4253 51.7788 41.2626 51.8462 41.1425 51.9663C41.0225 52.0863 40.9551 52.2491 40.9551 52.4188C40.9551 52.5885 41.0225 52.7513 41.1425 52.8714C41.2626 52.9914 41.4253 53.0588 41.5951 53.0588H47.7776C47.9473 53.0588 48.1101 52.9914 48.2301 52.8714C48.3502 52.7513 48.4176 52.5885 48.4176 52.4188C48.4176 52.2491 48.3502 52.0863 48.2301 51.9663C48.1101 51.8462 47.9473 51.7788 47.7776 51.7788H41.5951Z" fill="#60CDCE"/>
<path id="line5338" d="M51.1925 51.7788C51.0228 51.7788 50.86 51.8462 50.7399 51.9663C50.6199 52.0863 50.5525 52.2491 50.5525 52.4188C50.5525 52.5885 50.6199 52.7513 50.7399 52.8714C50.86 52.9914 51.0228 53.0588 51.1925 53.0588H52.485C52.6547 53.0588 52.8175 52.9914 52.9375 52.8714C53.0576 52.7513 53.125 52.5885 53.125 52.4188C53.125 52.2491 53.0576 52.0863 52.9375 51.9663C52.8175 51.8462 52.6547 51.7788 52.485 51.7788H51.1925Z" fill="#007BBC"/>
</g>
</g>
</svg>
