<svg width="64" height="64" viewBox="0 0 64 64" fill="none" xmlns="http://www.w3.org/2000/svg">
<g id="nft 1">
<g id="Group">
<path id="path3177" d="M6.4647 20.6779L3.5015 23.9867C1.9079 25.7723 2.0551 28.5179 3.8407 30.1179L14.5031 39.6667" stroke="#007BBC" stroke-width="1.38" stroke-miterlimit="10" stroke-linecap="round" stroke-linejoin="round"/>
<path id="path3179" d="M60.4935 40.0122L57.3831 43.4874L49.2615 27.769V24.1274L60.1607 33.8874C61.9463 35.4874 62.0935 38.2266 60.4935 40.0122Z" stroke="#007BBC" stroke-width="1.38" stroke-miterlimit="10" stroke-linecap="round" stroke-linejoin="round"/>
<path id="path3181" d="M37.7223 5.42659H28.3783L27.2967 4.46019L31.2711 2.40579C33.4023 1.30499 36.0199 2.14339 37.1207 4.26819L37.7223 5.42659Z" stroke="#007BBC" stroke-width="1.38" stroke-miterlimit="10" stroke-linecap="round" stroke-linejoin="round"/>
<path id="path3183" d="M36.6151 59.4682L32.4935 61.593C30.3623 62.6938 27.7447 61.8618 26.6439 59.7306L26.0423 58.5722H35.6167L36.6151 59.4682Z" stroke="#007BBC" stroke-width="1.38" stroke-miterlimit="10" stroke-linecap="round" stroke-linejoin="round"/>
<path id="path3185" d="M27.0343 4.22347L28.3783 5.42667H20.1223L20.9031 4.55627C22.5031 2.77067 25.2487 2.62347 27.0343 4.22347Z" stroke="#007BBC" stroke-width="1.38" stroke-miterlimit="10" stroke-linecap="round" stroke-linejoin="round"/>
<path id="path3187" d="M35.6167 58.5722H43.8791L43.0983 59.4426C41.4983 61.2282 38.7527 61.3818 36.9671 59.7818L35.6167 58.5722Z" stroke="#007BBC" stroke-width="1.38" stroke-miterlimit="10" stroke-linecap="round" stroke-linejoin="round"/>
<path id="path3189" d="M8.10309 14.3802L14.5031 11.0714V36.2298L6.23429 20.2234C5.13349 18.0986 5.97189 15.481 8.10309 14.3802Z" stroke="#007BBC" stroke-width="1.38" stroke-miterlimit="10" stroke-linecap="round" stroke-linejoin="round"/>
<path id="path3191" d="M55.6679 49.625L49.2615 52.9338V27.769L57.5303 43.7754C58.6311 45.9066 57.7991 48.5242 55.6679 49.625Z" stroke="#007BBC" stroke-width="1.38" stroke-miterlimit="10" stroke-linecap="round" stroke-linejoin="round"/>
<path id="path3195" d="M49.2641 9.76773V54.2343C49.2641 56.6317 47.3204 58.5748 44.9236 58.5748H18.843C16.4455 58.5748 14.5025 56.6311 14.5025 54.2343V9.76773C14.5025 7.37029 16.4462 5.42725 18.843 5.42725H44.9236C47.3211 5.42725 49.2641 7.37029 49.2641 9.76773Z" stroke="#007BBC" stroke-width="1.38" stroke-miterlimit="10" stroke-linecap="round" stroke-linejoin="round"/>
<path id="line3197" d="M20.2196 12.882H43.5463" stroke="#60CDCE" stroke-width="1.38" stroke-miterlimit="10" stroke-linecap="round" stroke-linejoin="round"/>
<path id="line3199" d="M43.5463 51.1207H20.2196" stroke="#60CDCE" stroke-width="1.38" stroke-miterlimit="10" stroke-linecap="round" stroke-linejoin="round"/>
<path id="path3201" d="M20.2196 36.2918V27.7094C20.2196 26.1984 21.026 24.8013 22.3348 24.0461L29.7678 19.7549C31.0766 18.9997 32.6887 18.9997 33.9975 19.7549L41.4311 24.0467C42.7399 24.8026 43.5463 26.199 43.5463 27.7101V36.2925C43.5463 37.8035 42.7399 39.2006 41.4311 39.9558L33.9982 44.247C32.6894 45.0022 31.0772 45.0022 29.7684 44.247L22.3348 39.9552C21.026 39.1994 20.2196 37.8029 20.2196 36.2918Z" stroke="#60CDCE" stroke-width="1.38" stroke-miterlimit="10" stroke-linecap="round" stroke-linejoin="round"/>
</g>
</g>
</svg>
