<svg width="74" height="74" viewBox="0 0 74 74" fill="none" xmlns="http://www.w3.org/2000/svg">
<g id="trading-card 1">
<g id="Group">
<path id="path1893" d="M20.9947 6.17004C17.7229 6.17004 15.053 8.84001 15.053 12.1117V61.8839C15.053 65.162 17.7229 67.8343 20.9947 67.8343H53.0069C56.2786 67.8343 58.9486 65.162 58.9486 61.8839V24.6845C58.9486 24.4882 58.8706 24.3 58.7318 24.1612C58.593 24.0225 58.4048 23.9445 58.2086 23.9445C58.0123 23.9445 57.8241 24.0225 57.6853 24.1612C57.5465 24.3 57.4686 24.4882 57.4686 24.6845V61.8839C57.4686 64.3631 55.4776 66.3543 53.0069 66.3543H20.9947C18.524 66.3543 16.533 64.3631 16.533 61.8839V12.1117C16.533 9.64104 18.524 7.65004 20.9947 7.65004H53.0069C55.4776 7.65004 57.4686 9.64104 57.4686 12.1117V13.2C57.4686 13.3963 57.5465 13.5845 57.6853 13.7233C57.8241 13.8621 58.0123 13.94 58.2086 13.94C58.4048 13.94 58.593 13.8621 58.7318 13.7233C58.8706 13.5845 58.9486 13.3963 58.9486 13.2V12.1117C58.9486 8.84001 56.2786 6.17004 53.0069 6.17004H20.9947Z" fill="#007BBC"/>
<path id="rect1895" d="M22.9083 13.2853C22.7121 13.2853 22.5239 13.3633 22.3851 13.502C22.2463 13.6408 22.1684 13.829 22.1683 14.0253V45.1718C22.1684 45.368 22.2463 45.5562 22.3851 45.695C22.5239 45.8338 22.7121 45.9117 22.9083 45.9118H51.0905C51.2867 45.9117 51.4749 45.8338 51.6137 45.695C51.7525 45.5562 51.8305 45.368 51.8305 45.1718V14.0253C51.8305 13.829 51.7525 13.6408 51.6137 13.502C51.4749 13.3633 51.2867 13.2853 51.0905 13.2853H22.9083ZM23.6483 14.7653H50.3505V44.4318H23.6483V14.7653Z" fill="#007BBC"/>
<path id="polyline1897" d="M31.1308 51.959C30.9345 51.959 30.7463 52.0369 30.6075 52.1757C30.4687 52.3145 30.3908 52.5027 30.3908 52.699V57.4613L27.0073 52.2929C26.9198 52.1598 26.7918 52.0584 26.6422 52.0039C26.4926 51.9494 26.3294 51.9446 26.1768 51.9902C26.0242 52.0358 25.8904 52.1294 25.7953 52.2571C25.7001 52.3848 25.6487 52.5397 25.6487 52.699V59.9443C25.6487 60.1406 25.7266 60.3288 25.8654 60.4676C26.0042 60.6064 26.1924 60.6843 26.3887 60.6843C26.5849 60.6843 26.7732 60.6064 26.9119 60.4676C27.0507 60.3288 27.1287 60.1406 27.1287 59.9443V55.1791L30.5122 60.349C30.5995 60.482 30.7274 60.5833 30.8769 60.6379C31.0264 60.6924 31.1895 60.6973 31.342 60.6519C31.4945 60.6065 31.6282 60.5131 31.7235 60.3857C31.8188 60.2582 31.8704 60.1035 31.8708 59.9443V52.699C31.8708 52.5027 31.7928 52.3145 31.654 52.1757C31.5152 52.0369 31.327 51.959 31.1308 51.959Z" fill="#007BBC"/>
<path id="line1899" d="M42.4618 51.959C42.2655 51.959 42.0773 52.0369 41.9385 52.1757C41.7998 52.3145 41.7218 52.5027 41.7218 52.699C41.7218 52.8952 41.7998 53.0835 41.9385 53.2222C42.0773 53.361 42.2655 53.439 42.4618 53.439H47.6114C47.8077 53.439 47.9959 53.361 48.1347 53.2222C48.2735 53.0835 48.3514 52.8952 48.3514 52.699C48.3514 52.5027 48.2735 52.3145 48.1347 52.1757C47.9959 52.0369 47.8077 51.959 47.6114 51.959H42.4618Z" fill="#007BBC"/>
<path id="line1901" d="M45.036 51.959C44.8398 51.959 44.6515 52.0369 44.5128 52.1757C44.374 52.3145 44.296 52.5027 44.296 52.699V59.9443C44.296 60.1406 44.374 60.3288 44.5128 60.4676C44.6515 60.6064 44.8398 60.6843 45.036 60.6843C45.2323 60.6843 45.4205 60.6064 45.5593 60.4676C45.6981 60.3288 45.776 60.1406 45.776 59.9443V52.699C45.776 52.5027 45.6981 52.3145 45.5593 52.1757C45.4205 52.0369 45.2323 51.959 45.036 51.959Z" fill="#007BBC"/>
<path id="polyline1903" d="M35.358 51.959C35.1618 51.959 34.9736 52.037 34.8348 52.1757C34.696 52.3145 34.6181 52.5027 34.618 52.699V59.9443C34.618 60.1406 34.696 60.3288 34.8348 60.4676C34.9736 60.6064 35.1618 60.6843 35.358 60.6843C35.5543 60.6843 35.7425 60.6064 35.8813 60.4676C36.0201 60.3288 36.098 60.1406 36.098 59.9443V53.439H38.9858C39.182 53.439 39.3703 53.361 39.509 53.2222C39.6478 53.0835 39.7258 52.8952 39.7258 52.699C39.7258 52.5027 39.6478 52.3145 39.509 52.1757C39.3703 52.0369 39.182 51.959 38.9858 51.959H35.358Z" fill="#007BBC"/>
<path id="line1905" d="M35.358 55.5809C35.1618 55.5809 34.9736 55.6589 34.8348 55.7977C34.696 55.9364 34.618 56.1247 34.618 56.3209C34.618 56.5172 34.696 56.7054 34.8348 56.8442C34.9736 56.983 35.1618 57.0609 35.358 57.0609H38.9858C39.182 57.0609 39.3703 56.983 39.509 56.8442C39.6478 56.7054 39.7258 56.5172 39.7258 56.3209C39.7258 56.1247 39.6478 55.9364 39.509 55.7977C39.3703 55.6589 39.182 55.5809 38.9858 55.5809H35.358Z" fill="#007BBC"/>
<path id="polygon1907" d="M29.1577 24.3463C29.0421 24.4103 28.9457 24.5041 28.8786 24.618C28.8115 24.7319 28.7761 24.8616 28.7761 24.9938V34.2033C28.7762 34.3283 28.8079 34.4513 28.8683 34.5607C28.9287 34.6701 29.0158 34.7625 29.1216 34.8291L36.6068 39.5279C36.7246 39.6017 36.8609 39.6409 37 39.6409C37.139 39.6409 37.2753 39.6017 37.3931 39.5279L44.8783 34.8291C44.9844 34.7627 45.0718 34.6704 45.1324 34.5609C45.1931 34.4515 45.225 34.3285 45.2252 34.2033V24.9938C45.225 24.8617 45.1894 24.7321 45.1222 24.6184C45.055 24.5047 44.9586 24.4111 44.8429 24.3472C44.7273 24.2834 44.5967 24.2516 44.4647 24.2553C44.3327 24.2589 44.204 24.2978 44.0921 24.368L37 28.8181L29.9092 24.368C29.7973 24.2975 29.6686 24.2584 29.5364 24.2546C29.4043 24.2508 29.2735 24.2824 29.1577 24.3463ZM43.7452 26.3322V33.7943L37 38.0276L30.2561 33.7943V26.3336L36.6068 30.3198C36.7246 30.3936 36.8609 30.4328 37 30.4328C37.139 30.4328 37.2753 30.3936 37.3931 30.3198L43.7452 26.3322Z" fill="#007BBC"/>
<path id="polygon1909" d="M36.607 19.6692L29.1217 24.3679C29.0157 24.4345 28.9284 24.527 28.8678 24.6365C28.8073 24.7461 28.7755 24.8693 28.7755 24.9945C28.7755 25.1196 28.8073 25.2428 28.8678 25.3524C28.9284 25.4619 29.0157 25.5544 29.1217 25.621L36.607 30.3197C36.7248 30.3936 36.861 30.4328 37.0001 30.4328C37.1391 30.4328 37.2754 30.3936 37.3932 30.3197L44.8785 25.621C44.9845 25.5544 45.0718 25.4619 45.1324 25.3524C45.1929 25.2428 45.2247 25.1196 45.2247 24.9945C45.2247 24.8693 45.1929 24.7461 45.1324 24.6365C45.0718 24.527 44.9845 24.4345 44.8785 24.3679L37.3932 19.6692C37.2754 19.5953 37.1391 19.5562 37.0001 19.5562C36.861 19.5562 36.7248 19.5953 36.607 19.6692ZM37.0001 21.1694L43.0935 24.9937L37.0001 28.818L30.9081 24.9937L37.0001 21.1694Z" fill="#007BBC"/>
<path id="line1911" d="M37.0001 28.9525C36.8039 28.9525 36.6156 29.0305 36.4769 29.1693C36.3381 29.308 36.2601 29.4963 36.2601 29.6925V38.9006C36.2601 39.0969 36.3381 39.2851 36.4769 39.4239C36.6156 39.5626 36.8039 39.6406 37.0001 39.6406C37.1964 39.6406 37.3846 39.5626 37.5234 39.4239C37.6622 39.2851 37.7401 39.0969 37.7401 38.9006V29.6925C37.7401 29.4963 37.6622 29.308 37.5234 29.1693C37.3846 29.0305 37.1964 28.9525 37.0001 28.9525Z" fill="#007BBC"/>
<path id="polygon1913" d="M29.1577 24.3463C29.0421 24.4103 28.9457 24.5041 28.8786 24.618C28.8115 24.7319 28.7761 24.8616 28.7761 24.9938V34.2033C28.7762 34.3283 28.8079 34.4513 28.8683 34.5607C28.9287 34.6701 29.0158 34.7625 29.1216 34.8291L36.6068 39.5279C36.7246 39.6017 36.8609 39.6409 37 39.6409C37.139 39.6409 37.2753 39.6017 37.3931 39.5279L44.8783 34.8291C44.9844 34.7627 45.0718 34.6704 45.1324 34.5609C45.1931 34.4515 45.225 34.3285 45.2252 34.2033V24.9938C45.225 24.8617 45.1894 24.7321 45.1222 24.6184C45.055 24.5047 44.9586 24.4111 44.8429 24.3472C44.7273 24.2834 44.5967 24.2516 44.4647 24.2553C44.3327 24.2589 44.204 24.2978 44.0921 24.368L37 28.8181L29.9092 24.368C29.7973 24.2975 29.6686 24.2584 29.5364 24.2546C29.4043 24.2508 29.2735 24.2824 29.1577 24.3463ZM43.7452 26.3322V33.7943L37 38.0276L30.2561 33.7943V26.3336L36.6068 30.3198C36.7246 30.3936 36.8609 30.4328 37 30.4328C37.139 30.4328 37.2753 30.3936 37.3931 30.3198L43.7452 26.3322Z" fill="#60CDCE"/>
<path id="polygon1915" d="M36.607 19.6692L29.1217 24.3679C29.0157 24.4345 28.9284 24.527 28.8678 24.6365C28.8073 24.7461 28.7755 24.8693 28.7755 24.9945C28.7755 25.1196 28.8073 25.2428 28.8678 25.3524C28.9284 25.4619 29.0157 25.5544 29.1217 25.621L36.607 30.3197C36.7248 30.3936 36.861 30.4328 37.0001 30.4328C37.1391 30.4328 37.2754 30.3936 37.3932 30.3197L44.8785 25.621C44.9845 25.5544 45.0718 25.4619 45.1324 25.3524C45.1929 25.2428 45.2247 25.1196 45.2247 24.9945C45.2247 24.8693 45.1929 24.7461 45.1324 24.6365C45.0718 24.527 44.9845 24.4345 44.8785 24.3679L37.3932 19.6692C37.2754 19.5953 37.1391 19.5562 37.0001 19.5562C36.861 19.5562 36.7248 19.5953 36.607 19.6692ZM37.0001 21.1694L43.0935 24.9937L37.0001 28.818L30.9081 24.9937L37.0001 21.1694Z" fill="#60CDCE"/>
<path id="line1917" d="M37.0001 28.9525C36.8039 28.9525 36.6156 29.0305 36.4769 29.1693C36.3381 29.308 36.2601 29.4963 36.2601 29.6925V38.9006C36.2601 39.0969 36.3381 39.2851 36.4769 39.4239C36.6156 39.5626 36.8039 39.6406 37.0001 39.6406C37.1964 39.6406 37.3846 39.5626 37.5234 39.4239C37.6622 39.2851 37.7401 39.0969 37.7401 38.9006V29.6925C37.7401 29.4963 37.6622 29.308 37.5234 29.1693C37.3846 29.0305 37.1964 28.9525 37.0001 28.9525Z" fill="#60CDCE"/>
<path id="circle1919" d="M61.5963 11.5306C57.5128 11.5306 54.1876 14.8573 54.1876 18.9408C54.1876 23.0242 57.5128 26.3509 61.5963 26.3509C65.6797 26.3509 69.0064 23.0242 69.0064 18.9408C69.0064 14.8573 65.6797 11.5306 61.5963 11.5306ZM61.5963 13.0106C64.8799 13.0106 67.5264 15.6572 67.5264 18.9408C67.5264 22.2244 64.8799 24.8709 61.5963 24.8709C58.3127 24.8709 55.6676 22.2244 55.6676 18.9408C55.6676 15.6572 58.3127 13.0106 61.5963 13.0106Z" fill="#60CDCE"/>
<path id="polyline1921" d="M63.6719 16.7382C63.4756 16.7382 63.2874 16.8162 63.1486 16.955L60.7465 19.3571L60.0456 18.6561C59.9068 18.5173 59.7186 18.4394 59.5224 18.4394C59.3261 18.4394 59.1379 18.5173 58.9992 18.6561C58.8604 18.7949 58.7825 18.9831 58.7825 19.1793C58.7825 19.3755 58.8604 19.5637 58.9992 19.7025L60.2233 20.9267C60.3621 21.0654 60.5503 21.1433 60.7465 21.1433C60.9428 21.1433 61.131 21.0654 61.2697 20.9267L64.1951 18.0014C64.3338 17.8626 64.4117 17.6744 64.4117 17.4782C64.4117 17.2819 64.3338 17.0937 64.1951 16.955C64.0563 16.8162 63.8681 16.7382 63.6719 16.7382Z" fill="#60CDCE"/>
</g>
</g>
</svg>
